<svg xmlns="http://www.w3.org/2000/svg" width="32" height="32" viewBox="5 5 320 320" fill="none">
    <path fill="#3EE1D0" fill-rule="nonzero" d="M296.59 199.91l6.26 3.61c17.98,10.39 17.98,27.22 0,37.61l-112.13 64.72c-17.97,10.38 -47.14,10.38 -65.12,0l-112.13 -64.73c-17.97,-10.38 -17.97,-27.22 0.01,-37.6l6.27 -3.62 93.36 53.89c0.38,0.25 0.77,0.49 1.17,0.73 12.57,7.26 28.43,10.89 43.9,10.89 15.47,0 31.33,-3.63 43.89,-10.89l-0.02 -0.04 94.55 -54.58z"/>
    <path fill="#3EE1D0" fill-rule="nonzero" d="M296.21 128.79l6.64 3.84c17.98,10.39 17.98,27.22 0,37.6l-112.13 64.73c-17.97,10.38 -47.13,10.38 -65.11,0l-112.13 -64.73c-17.97,-10.38 -17.97,-27.22 0.01,-37.6l6.64 -3.83c1.05,0.77 2.2,1.52 3.43,2.24l104.32 60.22c16.73,9.66 43.86,9.65 60.57,-0l104.31 -60.21c1.24,-0.71 2.39,-1.46 3.44,-2.24z"/>
    <g>
        <path fill="#3EE1D0" d="M96.03 127.47c-4.39,-15.74 -9.06,-23.54 -5.54,-42.87 4.74,-25.95 51.63,-68.91 66.62,-84.6 8.04,10.16 20.85,18.81 26.73,24.69 30.72,30.72 55.92,51.08 36.34,102.67 -1.65,-23.2 -10.69,-33.18 -25.99,-48.57 -12.29,-12.36 -23.87,-24.17 -36.14,-36.04 -11.52,9.22 -25.63,25.11 -36.77,36.25 -29.07,29.07 -24.7,37.89 -25.25,48.45z"/>
        <path fill="#3EE1D0" d="M159.57 75.75c8.64,10.66 32.81,27.41 35.46,45.97 3.42,24 -14.9,44.27 -37.4,43.94 -22.07,-0.32 -41.05,-21.48 -35.88,-45.45 4.73,-21.95 30.21,-34.12 37.81,-44.46z"/>
    </g>
</svg>
