<?xml version="1.0" encoding="UTF-8"?>
<!DOCTYPE svg PUBLIC "-//W3C//DTD SVG 1.1//EN" "http://www.w3.org/Graphics/SVG/1.1/DTD/svg11.dtd">
<!-- Creator: CorelDRAW 2021 (64-Bit) -->
<svg xmlns="http://www.w3.org/2000/svg" xml:space="preserve" width="2.96961in" height="0.741783in" version="1.1" style="shape-rendering:geometricPrecision; text-rendering:geometricPrecision; image-rendering:optimizeQuality; fill-rule:evenodd; clip-rule:evenodd"
viewBox="0 0 1255.6 313.64"
 xmlns:xlink="http://www.w3.org/1999/xlink"
 xmlns:xodm="http://www.corel.com/coreldraw/odm/2003">
 <defs>
  <style type="text/css">
   <![CDATA[
    .fil2 {fill:#3EE1D0}
    .fil1 {fill:#3EE1D0;fill-rule:nonzero}
    .fil0 {fill:white;fill-rule:nonzero}
   ]]>
  </style>
 </defs>
 <g id="Layer_x0020_1">
  <metadata id="CorelCorpID_0Corel-Layer"/>
  <g id="_1980428148688">
   <path class="fil0" d="M516.39 158.34l38.22 -111.62 42.47 0 -77.35 215.97 -47.93 0 -79.17 -215.97 43.68 0 39.13 111.62c9.1,27.5 15.98,49.95 20.63,67.34 5.26,-20.02 12.03,-42.46 20.32,-67.34zm245.69 28.81l0 9.1 -117.08 0c1.42,13.35 5.61,23.41 12.59,30.18 6.98,6.77 16.33,10.16 28.06,10.16 17.39,0 29.32,-7.48 35.79,-22.45l36.7 0c-4.05,15.98 -12.54,28.66 -25.48,38.07 -12.94,9.4 -28.71,14.11 -47.32,14.11 -23.25,0 -42.06,-7.48 -56.42,-22.45 -14.36,-14.96 -21.54,-34.78 -21.54,-59.45 0,-24.67 7.08,-44.49 21.23,-59.45 14.36,-14.96 33.06,-22.45 56.12,-22.45 23.66,0 42.47,7.79 56.42,23.36 13.95,15.57 20.93,36 20.93,61.27zm-77.65 -54.9c-22.45,0 -35.49,12.44 -39.13,37.31l78.56 0c-1.62,-11.53 -5.86,-20.63 -12.74,-27.3 -6.87,-6.67 -15.77,-10.01 -26.69,-10.01zm163.49 134.68c-45.7,0 -69.56,-18 -71.59,-53.99l37.31 0c1.01,9.71 4.2,16.58 9.55,20.63 5.36,4.05 13.8,6.07 25.33,6.07 20.63,0 30.94,-6.27 30.94,-18.81 0,-5.66 -2.22,-10.01 -6.67,-13.04 -4.45,-3.03 -12.44,-5.56 -23.96,-7.58l-17.9 -3.03c-34.17,-5.66 -51.26,-21.44 -51.26,-47.32 0,-14.76 5.66,-26.34 16.99,-34.73 11.32,-8.39 27.3,-12.59 47.92,-12.59 44.69,0 67.74,17.69 69.16,53.08l-36.1 0c-0.4,-9.3 -3.34,-15.93 -8.8,-19.87 -5.46,-3.94 -13.55,-5.91 -24.27,-5.91 -18.2,0 -27.3,6.07 -27.3,18.2 0,5.26 2.02,9.35 6.07,12.28 4.04,2.93 10.72,5.21 20.02,6.82l19.72 3.03c19.01,3.44 32.81,8.9 41.4,16.38 8.59,7.48 12.89,17.9 12.89,31.24 0,15.77 -6.07,27.91 -18.2,36.4 -12.13,8.49 -29.22,12.74 -51.26,12.74zm155.61 0c-45.7,0 -69.56,-18 -71.59,-53.99l37.31 0c1.01,9.71 4.2,16.58 9.55,20.63 5.36,4.05 13.8,6.07 25.33,6.07 20.63,0 30.94,-6.27 30.94,-18.81 0,-5.66 -2.22,-10.01 -6.67,-13.04 -4.45,-3.03 -12.44,-5.56 -23.96,-7.58l-17.9 -3.03c-34.17,-5.66 -51.26,-21.44 -51.26,-47.32 0,-14.76 5.66,-26.34 16.99,-34.73 11.32,-8.39 27.3,-12.59 47.92,-12.59 44.69,0 67.74,17.69 69.16,53.08l-36.1 0c-0.4,-9.3 -3.34,-15.93 -8.8,-19.87 -5.46,-3.94 -13.55,-5.91 -24.27,-5.91 -18.2,0 -27.3,6.07 -27.3,18.2 0,5.26 2.02,9.35 6.07,12.28 4.04,2.93 10.72,5.21 20.02,6.82l19.72 3.03c19.01,3.44 32.81,8.9 41.4,16.38 8.59,7.48 12.89,17.9 12.89,31.24 0,15.77 -6.07,27.91 -18.2,36.4 -12.13,8.49 -29.22,12.74 -51.26,12.74zm128 -4.25l-38.22 0 0 -215.97 38.22 0 0 215.97zm114.66 -158.94c3.44,0 6.57,0.2 9.4,0.61l0 35.19 -9.71 0c-14.56,0 -25.73,3.69 -33.52,11.07 -7.79,7.38 -11.68,18.25 -11.68,32.61l0 79.47 -38.22 0 0 -156.52 37.01 0 0 27.91c8.69,-20.22 24.27,-30.33 46.71,-30.33z"/>
   <g>
    <path class="fil1" d="M296.59 199.91l6.26 3.61c17.98,10.39 17.98,27.22 0,37.61l-112.13 64.72c-17.97,10.38 -47.14,10.38 -65.12,0l-112.13 -64.73c-17.97,-10.38 -17.97,-27.22 0.01,-37.6l6.27 -3.62 93.36 53.89c0.38,0.25 0.77,0.49 1.17,0.73 12.57,7.26 28.43,10.89 43.9,10.89 15.47,0 31.33,-3.63 43.89,-10.89l-0.02 -0.04 94.55 -54.58z"/>
    <path class="fil1" d="M296.21 128.79l6.64 3.84c17.98,10.39 17.98,27.22 0,37.6l-112.13 64.73c-17.97,10.38 -47.13,10.38 -65.11,0l-112.13 -64.73c-17.97,-10.38 -17.97,-27.22 0.01,-37.6l6.64 -3.83c1.05,0.77 2.2,1.52 3.43,2.24l104.32 60.22c16.73,9.66 43.86,9.65 60.57,-0l104.31 -60.21c1.24,-0.71 2.39,-1.46 3.44,-2.24z"/>
    <g>
     <path class="fil2" d="M96.03 127.47c-4.39,-15.74 -9.06,-23.54 -5.54,-42.87 4.74,-25.95 51.63,-68.91 66.62,-84.6 8.04,10.16 20.85,18.81 26.73,24.69 30.72,30.72 55.92,51.08 36.34,102.67 -1.65,-23.2 -10.69,-33.18 -25.99,-48.57 -12.29,-12.36 -23.87,-24.17 -36.14,-36.04 -11.52,9.22 -25.63,25.11 -36.77,36.25 -29.07,29.07 -24.7,37.89 -25.25,48.45z"/>
     <path class="fil2" d="M159.57 75.75c8.64,10.66 32.81,27.41 35.46,45.97 3.42,24 -14.9,44.27 -37.4,43.94 -22.07,-0.32 -41.05,-21.48 -35.88,-45.45 4.73,-21.95 30.21,-34.12 37.81,-44.46z"/>
    </g>
   </g>
  </g>
 </g>
</svg>
