<svg width="70" height="30" viewBox="0 0 70 30" fill="none" xmlns="http://www.w3.org/2000/svg">
<path d="M10.7334 24.4605H6.96229L0 4.93066H3.51001L6.90456 15.0865C7.65905 17.278 8.27773 19.1875 8.76126 20.8151H8.99351C9.55445 18.9924 10.183 17.0829 10.8791 15.0865L14.3025 4.93066H17.6964L10.7341 24.4605H10.7334Z" fill="white"/>
<path d="M24.3672 11.7335C22.2396 11.7335 21.0022 12.9378 20.6538 15.3465H27.79C27.6161 12.9378 26.4745 11.7335 24.3666 11.7335H24.3672ZM24.4545 24.8508C22.3268 24.8508 20.6348 24.1618 19.3778 22.7837C18.1207 21.4056 17.4922 19.4799 17.4922 17.0057C17.4922 14.4454 18.1207 12.4328 19.3778 10.9679C20.6348 9.50297 22.3268 8.77051 24.4545 8.77051C26.466 8.77051 28.0084 9.4161 29.0818 10.7073C30.1551 11.9985 30.6918 13.7292 30.6918 15.8993C30.6918 16.7238 30.6728 17.4077 30.6341 17.9502H20.6256C20.9156 20.5105 22.2022 21.7914 24.484 21.7914C25.4898 21.7914 26.2489 21.547 26.7612 21.0589C27.2736 20.5708 27.6463 19.8929 27.8779 19.0242L30.6052 19.9032C29.812 23.2018 27.7624 24.8508 24.4551 24.8508H24.4545Z" fill="white"/>
<path d="M60.1074 4.50781V24.4609H56.9746V4.50781H60.1074Z" fill="white"/>
<path d="M65.2714 24.4606H62.1387V9.16211H65.2714V14.1745H65.3292C65.6192 12.2649 66.0692 10.9524 66.6781 10.2361C67.2876 9.51987 68.1333 9.16211 69.2164 9.16211H69.9998V13.1005H68.6653C67.447 13.1005 66.5764 13.3714 66.0541 13.9139C65.5319 14.4564 65.2708 15.3899 65.2708 16.7135V24.4606H65.2714Z" fill="white"/>
<path fill-rule="evenodd" clip-rule="evenodd" d="M46.7632 29.1712C49.2576 22.0895 52.7145 22.2588 42.1562 14.4388C40.2149 13.0011 38.3589 11.9573 37.2173 9.56776C36.4411 7.94236 36.6301 6.91691 36.5697 5.04785C36.1603 5.54769 35.3173 7.5338 34.9282 8.35386C34.4119 9.44262 33.5767 10.6153 34.116 12.0118C36.2384 17.5071 44.6434 18.7909 46.4096 24.6373C46.8879 26.2215 46.4588 28.1598 46.7625 29.1705L46.7632 29.1712Z" fill="#3EE1D0"/>
<path fill-rule="evenodd" clip-rule="evenodd" d="M51.0549 24.1754C51.3573 23.7558 54.0125 18.3445 53.6995 17.0798C52.6347 12.78 46.44 10.0231 43.7685 7.42821C41.7058 5.4237 41.0116 4.42769 40.9355 0.232422C40.2873 1.03629 39.773 2.52992 39.2999 3.49721C38.3388 5.46197 37.333 6.33945 39.9593 9.41063C42.3363 12.1896 46.5535 13.8827 48.7573 16.3738C51.0306 18.9444 51.0155 19.6791 51.0542 24.1754H51.0549Z" fill="#3EE1D0"/>
<path fill-rule="evenodd" clip-rule="evenodd" d="M50.0583 0C51.8632 0 53.3255 1.64159 53.3255 3.66598C53.3255 5.69111 51.8625 7.33197 50.0583 7.33197C48.2534 7.33197 46.791 5.69037 46.791 3.66598C46.791 1.64086 48.2541 0 50.0583 0Z" fill="white"/>
<path fill-rule="evenodd" clip-rule="evenodd" d="M37.7477 22.668C39.5526 22.668 41.015 24.3096 41.015 26.334C41.015 28.3591 39.5519 29.9999 37.7477 29.9999C35.9429 29.9999 34.4805 28.3583 34.4805 26.334C34.4805 24.3088 35.9435 22.668 37.7477 22.668Z" fill="white"/>
</svg>
